<svg width="20" height="20" viewBox="0 0 20 20" fill="none" xmlns="http://www.w3.org/2000/svg">
<path d="M3.5 9.24991C3.5 9.44882 3.57902 9.63959 3.71967 9.78024C3.86032 9.92089 4.05109 9.99991 4.25 9.99991C4.44891 9.99991 4.63968 9.92089 4.78033 9.78024C4.92098 9.63959 5 9.44882 5 9.24991C5 8.45426 5.31607 7.6912 5.87868 7.12859C6.44129 6.56598 7.20435 6.24991 8 6.24991H14.566L13.443 7.49791C13.3746 7.57064 13.3215 7.65628 13.2866 7.74982C13.2518 7.84335 13.236 7.9429 13.2401 8.04263C13.2443 8.14236 13.2683 8.24026 13.3107 8.3306C13.3532 8.42093 13.4132 8.50188 13.4874 8.56871C13.5615 8.63553 13.6483 8.68688 13.7425 8.71975C13.8367 8.75262 13.9366 8.76635 14.0362 8.76013C14.1358 8.7539 14.2332 8.72786 14.3226 8.68352C14.4121 8.63918 14.4917 8.57744 14.557 8.50191L16.807 6.00191C16.9355 5.85915 17.0043 5.67253 16.9993 5.48052C16.9943 5.28852 16.9158 5.10575 16.78 4.96991L14.53 2.71991C14.4613 2.64622 14.3785 2.58712 14.2865 2.54613C14.1945 2.50514 14.0952 2.48309 13.9945 2.48132C13.8938 2.47954 13.7938 2.49807 13.7004 2.53579C13.607 2.57351 13.5222 2.62965 13.451 2.70087C13.3797 2.77209 13.3236 2.85692 13.2859 2.95031C13.2482 3.0437 13.2296 3.14373 13.2314 3.24443C13.2332 3.34513 13.2552 3.44445 13.2962 3.53645C13.3372 3.62845 13.3963 3.71125 13.47 3.77991L14.44 4.74991H8C6.80653 4.74991 5.66193 5.22402 4.81802 6.06793C3.97411 6.91184 3.5 8.05644 3.5 9.24991Z" fill="white"/>
<path d="M16.5001 10.75C16.5001 10.5511 16.421 10.3603 16.2804 10.2197C16.1397 10.079 15.949 10 15.7501 10C15.5511 10 15.3604 10.079 15.2197 10.2197C15.0791 10.3603 15.0001 10.5511 15.0001 10.75C15.0001 11.5456 14.684 12.3087 14.1214 12.8713C13.5588 13.4339 12.7957 13.75 12.0001 13.75H5.43406L6.55706 12.502C6.62542 12.4293 6.67858 12.3436 6.71342 12.2501C6.74825 12.1566 6.76407 12.057 6.75994 11.9573C6.75581 11.8575 6.73181 11.7596 6.68935 11.6693C6.6469 11.579 6.58684 11.498 6.51269 11.4312C6.43855 11.3644 6.35181 11.313 6.25756 11.2802C6.16332 11.2473 6.06346 11.2336 5.96384 11.2398C5.86422 11.246 5.76684 11.272 5.67741 11.3164C5.58799 11.3607 5.50831 11.4225 5.44306 11.498L3.19306 13.998C3.06456 14.1408 2.99572 14.3274 3.00075 14.5194C3.00577 14.7114 3.08427 14.8942 3.22006 15.03L5.47006 17.28C5.61223 17.4125 5.80028 17.4846 5.99458 17.4812C6.18888 17.4777 6.37427 17.399 6.51168 17.2616C6.64909 17.1242 6.72781 16.9388 6.73123 16.7445C6.73466 16.5502 6.66254 16.3622 6.53006 16.22L5.56006 15.25H12.0001C13.1935 15.25 14.3381 14.7759 15.182 13.932C16.026 13.0881 16.5001 11.9435 16.5001 10.75Z" fill="white"/>
</svg>
